<?xml version="1.0" standalone="no"?>
<svg viewBox="0 0 200 200" xmlns="http://www.w3.org/2000/svg">
  <path fill="#143E30" d="M12.8,-34.2C14.1,-21.5,10.9,-13,16.3,-8C21.7,-3,35.7,-1.5,38.9,1.9C42.2,5.3,34.8,10.5,34,23.5C33.2,36.5,39.1,57.2,34.6,68.4C30,79.5,15,81,5.2,71.9C-4.5,62.8,-9,43.2,-13.7,32.1C-18.4,21.1,-23.2,18.6,-28.8,14.7C-34.3,10.8,-40.7,5.4,-42.5,-1.1C-44.4,-7.5,-41.6,-15,-42,-29.2C-42.3,-43.4,-45.7,-64.2,-39.2,-73.9C-32.8,-83.7,-16.4,-82.2,-5.3,-73C5.8,-63.8,11.5,-46.9,12.8,-34.2Z" transform="translate(70 130)" />
</svg>
