<?xml version="1.0" standalone="no"?>
<svg viewBox="0 0 200 200" xmlns="http://www.w3.org/2000/svg">
  <path fill="#CC7178" d="M40.7,-62.5C54.1,-62.8,67.1,-54.5,65.5,-42.7C64,-30.8,47.9,-15.4,37,-6.3C26,2.7,20.1,5.5,19.1,12.9C18,20.3,21.8,32.3,19.5,43.6C17.1,54.8,8.5,65.1,-2,68.6C-12.5,72,-25,68.4,-31,59.3C-37,50.2,-36.5,35.5,-44.8,24.7C-53,13.9,-69.9,6.9,-71.2,-0.7C-72.4,-8.4,-57.9,-16.7,-49.6,-27.3C-41.2,-37.9,-38.9,-50.7,-31.7,-53.9C-24.4,-57.1,-12.2,-50.8,0.7,-52.1C13.7,-53.4,27.4,-62.2,40.7,-62.5Z" transform="translate(140 150)" />
</svg>
